Coordinates
version=1
nRows=16
nColumns=63
inDegrees=yes

Units are S.I. units (second, meters, Newtons, ...)
If the header above contains a line with 'inDegrees', this indicates whether rotational values are in degrees (yes) or radians (no).

endheader
time	pelvis_tilt	pelvis_list	pelvis_rotation	pelvis_tx	pelvis_ty	pelvis_tz	hip_flexion_r	hip_adduction_r	hip_rotation_r	knee_angle_r	knee_angle_r_beta	ankle_angle_r	subtalar_angle_r	mtp_angle_r	hip_flexion_l	hip_adduction_l	hip_rotation_l	knee_angle_l	knee_angle_l_beta	ankle_angle_l	subtalar_angle_l	mtp_angle_l	L5_S1_Flex_Ext	L5_S1_Lat_Bending	L5_S1_axial_rotation	L4_L5_Flex_Ext	L4_L5_Lat_Bending	L4_L5_axial_rotation	L3_L4_Flex_Ext	L3_L4_Lat_Bending	L3_L4_axial_rotation	L2_L3_Flex_Ext	L2_L3_Lat_Bending	L2_L3_axial_rotation	L1_L2_Flex_Ext	L1_L2_Lat_Bending	L1_L2_axial_rotation	L1_T12_Flex_Ext	L1_T12_Lat_Bending	L1_T12_axial_rotation	Abs_r3	Abs_r2	Abs_r1	Abs_t1	Abs_t2	neck_flexion	neck_bending	neck_rotation	arm_flex_r	arm_add_r	arm_rot_r	elbow_flex_r	pro_sup_r	wrist_flex_r	wrist_dev_r	arm_flex_l	arm_add_l	arm_rot_l	elbow_flex_l	pro_sup_l	wrist_flex_l	wrist_dev_l
0.000000	6.973186	-5.499742	84.846468	0.480204	0.653145	0.629775	0.254289	4.485039	-0.247091	7.170700	0.125152	21.951424	5.072015	0.000000	1.682188	-4.063027	-5.275304	12.642356	0.220651	27.355496	-5.912447	0.000000	0.060873	0.452525	0.513539	0.113047	0.601858	0.545636	0.100008	1.100268	0.545636	0.069572	1.100268	0.449347	0.056527	0.922788	0.417251	0.034783	0.700961	0.385155	0.434810	5.119049	2.856152	0.000000	0.000000	26.517494	-4.274699	8.430740	26.514015	-10.050317	88.885438	44.762808	79.103000	0.279341	9.824785	15.871246	-5.978767	61.583760	42.097000	80.236475	6.194919	15.785929
0.020000	6.779773	-5.237315	84.205638	0.481103	0.653364	0.628415	-0.283107	4.155119	-0.626842	7.135674	0.124541	21.676207	6.455192	0.000000	0.873617	-3.830790	-6.679355	12.163553	0.212294	26.870188	-5.770493	0.000000	0.052347	0.426705	0.737104	0.097213	0.567518	0.783173	0.086001	1.037491	0.783173	0.059827	1.037491	0.644966	0.048609	0.870138	0.598897	0.029911	0.660967	0.552828	0.373908	4.826976	4.099552	0.000000	0.000000	26.338777	-4.375944	7.742399	24.679888	-10.626453	87.088447	45.851705	56.317859	-2.238332	10.873405	16.200290	-5.944120	63.180873	42.055136	81.231215	6.681829	16.087233
0.040000	6.603675	-5.063032	83.679509	0.481879	0.653515	0.627345	-0.701985	3.873926	-0.907134	7.062754	0.123268	21.382941	7.490320	0.000000	0.268055	-3.627389	-7.787187	11.786232	0.205709	26.449015	-5.739380	0.000000	0.047700	0.402720	0.924371	0.088584	0.535617	0.982145	0.078367	0.979172	0.982145	0.054517	0.979172	0.808825	0.044294	0.821226	0.751052	0.027256	0.623813	0.693279	0.340718	4.555644	5.141077	0.000000	0.000000	26.226256	-4.497485	7.137848	23.179705	-11.074936	85.604807	46.689189	37.833029	-4.124419	11.554542	16.437036	-5.951363	64.467494	42.080013	81.833042	6.974320	16.397719
0.060000	6.444665	-4.967331	83.259799	0.482537	0.653605	0.626544	-1.012221	3.637998	-1.100446	6.959438	0.121465	21.076884	8.212484	0.000000	-0.154169	-3.451272	-8.625681	11.501246	0.200735	26.088353	-5.802819	0.000000	0.046459	0.380577	1.077527	0.086278	0.506167	1.144872	0.076327	0.925335	1.144872	0.053098	0.925335	0.942836	0.043141	0.776073	0.875491	0.026546	0.589514	0.808145	0.331849	4.305163	5.992882	0.000000	0.000000	26.171917	-4.632232	6.615510	21.985541	-11.407710	84.408290	47.300614	23.255490	-5.447057	11.913251	16.591116	-5.995003	65.469022	42.162658	82.078815	7.089822	16.711702
0.080000	6.302515	-4.940650	82.938228	0.483079	0.653641	0.625988	-1.223690	3.443873	-1.219258	6.833220	0.119262	20.763294	8.656769	0.000000	-0.412724	-3.300887	-9.221716	11.299449	0.197213	25.784577	-5.944521	0.000000	0.048147	0.360287	1.198757	0.089414	0.479182	1.273679	0.079100	0.876003	1.273679	0.055027	0.876003	1.048912	0.044709	0.734698	0.973990	0.027511	0.558085	0.899067	0.343908	4.075643	6.667125	0.000000	0.000000	26.167744	-4.773096	6.173808	21.069474	-11.636718	83.472668	47.711332	12.192224	-6.274385	11.994585	16.672161	-6.069550	66.210857	42.294100	82.005389	7.045763	17.023498
0.100000	6.176998	-4.973426	82.706516	0.483511	0.653631	0.625657	-1.346270	3.288091	-1.276048	6.691597	0.116790	20.447430	8.858260	0.000000	-0.527282	-3.174685	-9.602173	11.171693	0.194983	25.534064	-6.148196	0.000000	0.052290	0.341860	1.290246	0.097108	0.454674	1.370886	0.085908	0.831199	1.370886	0.059763	0.831199	1.128965	0.048557	0.697122	1.048325	0.029879	0.529542	0.967685	0.373504	3.867193	7.175962	0.000000	0.000000	26.205720	-4.912987	5.811165	20.403580	-11.773903	82.771714	47.946698	4.250214	-6.674541	11.843598	16.689803	-6.169512	66.718398	42.465369	81.649622	6.859570	17.327421
0.120000	6.067887	-5.056098	82.556381	0.483836	0.653583	0.625529	-1.389837	3.167190	-1.283297	6.542065	0.114181	20.134551	8.852042	0.000000	-0.517512	-3.071112	-9.793931	11.108832	0.193886	25.333188	-6.397555	0.000000	0.058414	0.325306	1.354181	0.108480	0.432657	1.438818	0.095968	0.790948	1.438818	0.066761	0.790948	1.184909	0.054243	0.663363	1.100272	0.033378	0.503898	1.015636	0.417244	3.679923	7.531550	0.000000	0.000000	26.277832	-5.044815	5.526003	19.959938	-11.831210	82.279201	48.032063	-0.963560	-6.715665	11.505345	16.653673	-6.289398	67.017044	42.667492	81.048372	6.548671	17.617788
0.140000	5.974955	-5.179102	82.479543	0.484057	0.653503	0.625583	-1.364266	3.077710	-1.253483	6.392119	0.111564	19.829915	8.673201	0.000000	-0.403085	-2.988618	-9.823872	11.101719	0.193762	25.178327	-6.676307	0.000000	0.066043	0.310633	1.392748	0.122648	0.413142	1.479794	0.108502	0.755273	1.479794	0.075480	0.755273	1.218654	0.061327	0.633443	1.131608	0.037737	0.481170	1.044561	0.471738	3.513942	7.746045	0.000000	0.000000	26.376063	-5.161491	5.316747	19.710623	-11.820582	81.968901	47.992782	-3.842116	-6.465893	11.024879	16.573404	-6.423717	67.132196	42.891499	80.238495	6.130495	17.888912
0.160000	5.897973	-5.332877	82.467722	0.484179	0.653400	0.625795	-1.279435	3.016189	-1.199086	6.249256	0.109070	19.538780	8.356821	0.000000	-0.203671	-2.925652	-9.718875	11.141208	0.194451	25.065855	-6.968164	0.000000	0.074702	0.297852	1.408132	0.138730	0.396143	1.496140	0.122729	0.724197	1.496140	0.085377	0.724197	1.232115	0.069369	0.607380	1.144107	0.042685	0.461373	1.056099	0.533592	3.369361	7.831605	0.000000	0.000000	26.492398	-5.255925	5.181817	19.627713	-11.753963	81.814588	47.854206	-4.778472	-5.993366	10.447254	16.458626	-6.566977	67.089252	43.128418	79.256848	5.622471	18.135111
0.180000	5.836717	-5.507860	82.512636	0.484206	0.653280	0.626146	-1.145220	2.979166	-1.132585	6.120972	0.106831	19.266405	7.937988	0.000000	0.061059	-2.880661	-9.505821	11.218151	0.195794	24.992148	-7.256836	0.000000	0.083918	0.286972	1.402518	0.155843	0.381673	1.490176	0.137868	0.697745	1.490176	0.095909	0.697745	1.227203	0.077926	0.585194	1.139546	0.047951	0.444520	1.051889	0.599415	3.246289	7.800386	0.000000	0.000000	26.618820	-5.321027	5.119639	19.683284	-11.643295	81.790032	47.641689	-4.165647	-5.366221	9.817524	16.318971	-6.713687	66.913611	43.369279	78.140288	5.042025	18.350698
0.200000	5.790957	-5.694489	82.606006	0.484141	0.653152	0.626612	-0.971497	2.963181	-1.066460	6.014763	0.104977	19.018049	7.451788	0.000000	0.371436	-2.852095	-9.211589	11.323402	0.197631	24.953582	-7.526033	0.000000	0.093214	0.278004	1.378094	0.173107	0.369745	1.464225	0.153141	0.675939	1.464225	0.106534	0.675939	1.205832	0.086558	0.566906	1.119701	0.053262	0.430628	1.033570	0.665815	3.144836	7.664544	0.000000	0.000000	26.747316	-5.349707	5.128634	19.849414	-11.500524	81.869008	47.380585	-2.396660	-4.652598	9.180744	16.164071	-6.858355	66.630674	43.605109	76.925672	4.406587	18.529989
0.220000	5.773757	-5.853626	82.743068	0.483954	0.653062	0.627152	-0.795908	2.969148	-1.046882	5.943523	0.103734	18.827667	7.008203	0.000000	0.666811	-2.849261	-8.936059	11.442227	0.199705	24.980591	-7.649562	0.000000	0.100879	0.272597	1.337712	0.187341	0.362554	1.421319	0.165733	0.662793	1.421319	0.115294	0.662793	1.170498	0.093676	0.555880	1.086891	0.057642	0.422253	1.003284	0.720565	3.083675	7.439953	0.000000	0.000000	26.825431	-5.308169	5.178559	20.245516	-11.346134	82.515377	47.074861	-0.240549	-3.728785	8.389653	16.022362	-6.969804	66.373963	43.795751	75.456141	3.598673	18.651603
0.240000	5.769985	-5.998958	82.917730	0.483675	0.652970	0.627741	-0.610082	2.990402	-1.028129	5.918763	0.103302	18.647271	6.509146	0.000000	0.950927	-2.851661	-8.578829	11.554130	0.201658	25.020800	-7.783385	0.000000	0.106441	0.269795	1.273345	0.197671	0.358827	1.352929	0.174872	0.655979	1.352929	0.121651	0.655979	1.114177	0.098841	0.550166	1.034593	0.060820	0.417912	0.955009	0.760296	3.051973	7.081962	0.000000	0.000000	26.896484	-5.204973	5.422409	20.698367	-11.165138	83.076119	46.739712	4.307134	-2.845429	7.709163	15.877745	-7.090332	66.042628	43.980449	74.098635	2.788556	18.752028
0.260000	5.783745	-6.130076	83.124500	0.483295	0.652888	0.628367	-0.406890	3.019810	-1.146117	5.959567	0.104014	18.505425	6.152042	0.000000	1.223196	-2.873359	-8.258496	11.669203	0.203666	25.091229	-7.788509	0.000000	0.110168	0.268882	1.196907	0.204592	0.357613	1.271714	0.180994	0.653760	1.271714	0.125910	0.653760	1.047294	0.102302	0.548305	0.972487	0.062950	0.416499	0.897681	0.786916	3.041649	6.656840	0.000000	0.000000	26.963346	-5.049133	5.697351	20.955297	-11.068437	83.378501	46.605223	4.155177	-2.593881	7.742891	15.758523	-7.180545	65.670049	44.108617	72.981036	2.063360	18.715527
0.280000	5.810520	-6.244917	83.357934	0.482823	0.652801	0.629026	-0.174551	3.055834	-1.313069	6.096167	0.106398	18.433000	5.844635	0.000000	1.481938	-2.906248	-7.929246	11.791114	0.205794	25.180589	-7.729523	0.000000	0.113242	0.269425	1.108839	0.210301	0.358336	1.178141	0.186045	0.655081	1.178141	0.129424	0.655081	0.970234	0.105156	0.549412	0.900931	0.064706	0.417340	0.831629	0.808873	3.047795	6.167028	0.000000	0.000000	27.019718	-4.803653	6.037641	21.093509	-10.970534	83.322784	46.563913	3.928791	-2.777610	8.120167	15.656102	-7.239598	65.236655	44.178118	71.988327	1.446366	18.593829
0.300000	5.849503	-6.322378	83.585499	0.482298	0.652756	0.629714	0.022617	3.096269	-1.511032	6.232906	0.108785	18.379257	5.627309	0.000000	1.680565	-2.941413	-7.634536	11.876760	0.207289	25.250540	-7.636892	0.000000	0.113122	0.271526	1.013719	0.210079	0.361129	1.077076	0.185848	0.660188	1.077076	0.129287	0.660188	0.887004	0.105045	0.553695	0.823647	0.064638	0.420593	0.760289	0.808020	3.071553	5.638000	0.000000	0.000000	27.039142	-4.520505	6.427740	21.180461	-10.874107	83.057288	46.553505	3.644483	-3.240121	8.793473	15.599240	-7.280084	64.779094	44.221263	71.205847	0.976476	18.471542
